<svg xmlns="http://www.w3.org/2000/svg" width="1200" height="1200" viewBox="0 0 1200 1200">
  <defs>
    <style>
      .cls-1 {
        fill: #584edd;
        fill-rule: evenodd;
      }
    </style>
  </defs>
  <path class="cls-1" d="M426.821,218.909L511.032,115.92,775.3,1006.2l-79.414,83.45Z"/>
  <path class="cls-1" d="M416,190l93-92.008V1102.96L416,1014V190Z"/>
  <path id="Rectangle_3_copy" data-name="Rectangle 3 copy" class="cls-1" d="M784.784,189.575L692.216,97.992V1098.32l92.568-88.55V189.575Z"/>
  <path class="cls-1" d="M6.363,600L418.607,187.757l60.811,60.811L67.175,660.811Z"/>
  <path id="Rectangle_2_copy" data-name="Rectangle 2 copy" class="cls-1" d="M66.8,541.988L478.993,954.2l-60.8,60.806L6,602.8Z"/>
  <path id="Rectangle_2_copy_3" data-name="Rectangle 2 copy 3" class="cls-1" d="M1193.64,601.875L781.747,1013.99,720.988,953.2,1132.88,541.082Z"/>
  <path id="Rectangle_2_copy_3-2" data-name="Rectangle 2 copy 3" class="cls-1" d="M1133.25,659.869L721.413,247.777l60.751-60.789L1194,599.08Z"/>
  <path id="Rectangle_2_copy_2" data-name="Rectangle 2 copy 2" class="cls-1" d="M71,557l408,0.019,0,85.991-408-.019Z"/>
</svg>
